# xmcd CD database file
#
# Track frame offsets:
#	150
#	20003
#	36525
#	59971
#	94935
#	127049
#	159310
#	198291
#	237620
#	279014
#	304037
#	331787
#
# Disc length: 4571 seconds
#
# Revision: 2
# Processed by: cddbd v1.5.2PL0 Copyright (c) Steve Scherf et al.
# Submitted via: CDex 1.51
#
DISCID=ac11d90c
DTITLE=Anael& - Bradfield - Light and Love
DYEAR=2007
DGENRE=New Age
TTITLE0=Light and Love I
TTITLE1=Be still thy soul
TTITLE2=The first supper
TTITLE3=Padmasambhava
TTITLE4=Ogbourne ST. George
TTITLE5=ajrasattva
TTITLE6=Heaven and Earth Spirits
TTITLE7=Buddha Spirit
TTITLE8=Shakyamuni
TTITLE9=Milk Hill (white Horse)
TTITLE10=Reaching the light
TTITLE11=Light and Love II
EXTD=YEAR: 2007
EXTT0=
EXTT1=
EXTT2=
EXTT3=
EXTT4=
EXTT5=
EXTT6=
EXTT7=
EXTT8=
EXTT9=
EXTT10=
EXTT11=
PLAYORDER=
